<?xml version="1.0" encoding="UTF-8"?>
<svg id="Layer_2" xmlns="http://www.w3.org/2000/svg" version="1.1" viewBox="0 0 1280 720">
  <!-- Generator: Adobe Illustrator 30.6.0, SVG Export Plug-In . SVG Version: 2.1.4 Build 109)  -->
  <defs>
    <style>
      .st0 {
        fill: #99ad7a;
      }

      .st1 {
        isolation: isolate;
      }

      .st2 {
        fill: #173014;
      }
    </style>
  </defs>
  <g id="Layer_1-2">
    <rect class="st0" width="1280" height="720"/>
  </g>
  <g class="st1">
    <g class="st1">
      <path class="st2" d="M396,348v41h-16v-41h-9v-9h9v-16h16v17h8v8h-8Z"/>
      <path class="st2" d="M477,389v-41h-8v8h-8v33h-16v-41h-8v8h-9v33h-16v-49h16v8h9v-8h16v8h16v-8h16v8h8v41h-16Z"/>
      <path class="st2" d="M550,381v8h-24v16h-16v-65h41l-1,8h9v33h-9ZM542,348h-16v32h16v-32Z"/>
      <path class="st2" d="M600,331v-8h16v8h-16ZM600,389v-49h16v49h-16Z"/>
      <path class="st2" d="M697,389v-41h-8v8h-8v33h-16v-41h-8v8h-9v33h-16v-49h16v8h9v-8h16v8h16v-8h16v8h8v41h-16Z"/>
      <path class="st2" d="M738,389v-8h-8v-17h8v-8h24v-8h-24v-8h33v8h8v41h-41ZM762,364h-16v16h16v-16Z"/>
      <path class="st2" d="M844,348v49h-8v8h-33v-8h24v-8h-24v-8h-8v-33h8v-8h49v8h-8ZM828,348h-16v32h16v-32Z"/>
      <path class="st2" d="M901,380v8h-33v-7h-8v-33h8v-8h33v8h8v8h-8v8h-16v8h-8v8h24v-8h8v8h-8ZM893,348h-16v16h8v-8h8v-8Z"/>
    </g>
  </g>
</svg>