<?xml version="1.0" encoding="UTF-8"?>
<svg id="Layer_2" data-name="Layer 2" xmlns="http://www.w3.org/2000/svg" viewBox="0 0 100 100.39">
  <defs>
    <style>
      .cls-1 {
        fill: #de8201;
      }

      .cls-2 {
        fill: #183014;
      }
    </style>
  </defs>
  <g id="Layer_1-2" data-name="Layer 1">
    <g>
      <polygon class="cls-2" points="100 15.44 100 84.95 92.31 84.95 92.31 92.67 84.62 92.67 84.62 100.39 15.38 100.39 15.38 92.67 7.69 92.67 7.69 84.95 0 84.95 0 15.44 7.69 15.44 7.69 7.72 15.38 7.72 15.38 0 84.62 0 84.62 7.72 92.31 7.72 92.31 15.44 100 15.44"/>
      <g>
        <path class="cls-1" d="M45.23,69.07v-9.42h-13.99v9.42h-4.8v-14.22h4.68v-14.05h4.68v-9.48h9.53v9.48h4.68v14.05h4.68v14.22h-9.48ZM40.55,40.92h-4.63v13.93h4.63v-13.93Z"/>
        <path class="cls-1" d="M64.07,69.07V31.33h9.48v37.74h-9.48Z"/>
      </g>
    </g>
  </g>
</svg>