<?xml version="1.0" encoding="UTF-8"?>
<svg id="Layer_2" data-name="Layer 2" xmlns="http://www.w3.org/2000/svg" viewBox="0 0 100 100.39">
  <defs>
    <style>
      .cls-1 {
        fill: #ebebeb;
      }

      .cls-2 {
        fill: #183014;
      }

      .cls-3 {
        fill: #2965f1;
      }

      .cls-4 {
        fill: #fff;
      }

      .cls-5 {
        fill: #264de4;
      }
    </style>
  </defs>
  <g id="Layer_1-2" data-name="Layer 1">
    <g>
      <polygon class="cls-2" points="100 15.44 100 84.95 92.31 84.95 92.31 92.67 84.62 92.67 84.62 100.39 15.38 100.39 15.38 92.67 7.69 92.67 7.69 84.95 0 84.95 0 15.44 7.69 15.44 7.69 7.72 15.38 7.72 15.38 0 84.62 0 84.62 7.72 92.31 7.72 92.31 15.44 100 15.44"/>
      <g>
        <g>
          <polygon class="cls-5" points="27.26 31.81 27.26 47.73 29.53 47.73 29.53 63.65 31.81 63.65 31.81 75.02 36.36 75.02 36.36 77.3 40.91 77.3 40.91 79.57 59.09 79.57 59.09 77.3 63.64 77.3 63.64 75.02 68.19 75.02 68.19 63.65 70.46 63.65 70.46 47.73 72.74 47.73 72.74 31.81 27.26 31.81"/>
          <polygon class="cls-3" points="68.19 34.09 68.19 47.73 65.91 47.73 65.91 61.38 63.64 61.38 63.64 72.75 59.09 72.75 59.09 75.02 50 75.02 50 43.18 50.01 43.18 50.01 38.64 50 38.64 50 34.09 68.19 34.09"/>
          <rect class="cls-4" x="50" y="41.36" width="13.65" height="5.38"/>
          <polygon class="cls-1" points="41.72 46.74 41.72 53 50 53 50 58.38 36.35 58.38 36.35 41.36 50 41.36 50 46.74 41.72 46.74"/>
          <polygon class="cls-4" points="61.57 53 61.57 72.03 50 72.03 50 66.65 56.2 66.65 56.2 58.38 50 58.38 50 53 61.57 53"/>
          <polygon class="cls-1" points="50 66.65 50 72.03 39.04 72.03 39.04 61.38 44.42 61.38 44.42 66.65 50 66.65"/>
        </g>
        <g>
          <path class="cls-4" d="M44.04,28.45v1.1h-3.28v-1.1h-1.08v-6.52h1.08v-1.11h4.37v2.22h-1.11v-1.09h-2.15v6.49h2.15v-1.11h1.11v1.12h-1.08Z"/>
          <path class="cls-4" d="M51.64,28.45v1.1h-4.37v-2.2h1.11v1.1h2.15v-2.14h-2.18v-1.09h-1.08v-3.27h1.08v-1.11h4.37v2.22h-1.11v-1.09h-2.15v2.15h2.18v1.09h1.08v3.26h-1.08Z"/>
          <path class="cls-4" d="M59.24,28.45v1.1h-4.37v-2.2h1.11v1.1h2.15v-2.14h-2.18v-1.09h-1.08v-3.27h1.08v-1.11h4.37v2.22h-1.11v-1.09h-2.15v2.15h2.18v1.09h1.08v3.26h-1.08Z"/>
        </g>
      </g>
    </g>
  </g>
</svg>