<?xml version="1.0" encoding="UTF-8"?>
<svg id="Layer_2" data-name="Layer 2" xmlns="http://www.w3.org/2000/svg" viewBox="0 0 100.39 100.39">
  <defs>
    <style>
      .cls-1 {
        fill: #3c00ff;
      }

      .cls-2 {
        fill: #00ffc1;
      }

      .cls-3 {
        fill: #ec00ff;
      }

      .cls-4 {
        fill: #fcff7c;
      }

      .cls-5 {
        fill: #00ff1b;
      }

      .cls-6 {
        fill: #2f00ff;
      }

      .cls-7 {
        fill: #0061ff;
      }

      .cls-8 {
        fill: #3aff00;
      }

      .cls-9 {
        fill: #8aff00;
      }

      .cls-10 {
        fill: #00fffc;
      }

      .cls-11 {
        fill: #003fff;
      }

      .cls-12 {
        fill: #00ffcd;
      }

      .cls-13 {
        fill: #00d4ff;
      }

      .cls-14 {
        fill: #ffbe00;
      }

      .cls-15 {
        fill: #67a3dc;
      }

      .cls-16 {
        fill: #fdffa0;
      }

      .cls-17 {
        fill: #00ff7d;
      }

      .cls-18 {
        fill: #ff2100;
      }

      .cls-19 {
        fill: #183014;
      }

      .cls-20 {
        fill: #ff9800;
      }

      .cls-21 {
        fill: #c700ff;
      }

      .cls-22 {
        fill: #ff6271;
      }

      .cls-23 {
        fill: #a600ff;
      }

      .cls-24 {
        fill: #0bff00;
      }

      .cls-25 {
        fill: #ff7a00;
      }

      .cls-26 {
        fill: #e3ff00;
      }

      .cls-27 {
        fill: #00f5ff;
      }

      .cls-28 {
        fill: #ffc5cb;
      }

      .cls-29 {
        fill: #70f;
      }

      .cls-30 {
        fill: #ff00a2;
      }

      .cls-31 {
        fill: #00ff3d;
      }

      .cls-32 {
        fill: #64ff00;
      }

      .cls-33 {
        fill: #feffdd;
      }

      .cls-34 {
        fill: #60f;
      }

      .cls-35 {
        fill: #ff6500;
      }

      .cls-36 {
        fill: #bdff00;
      }

      .cls-37 {
        fill: #b9ddf1;
      }

      .cls-38 {
        fill: #ffca00;
      }

      .cls-39 {
        fill: #ffe400;
      }

      .cls-40 {
        fill: #ff0700;
      }

      .cls-41 {
        fill: #82c1e7;
      }

      .cls-42 {
        fill: #ff0041;
      }

      .cls-43 {
        fill: #ff3a00;
      }

      .cls-44 {
        fill: #ff0091;
      }

      .cls-45 {
        fill: #00a1ff;
      }

      .cls-46 {
        fill: #00ffef;
      }

      .cls-47 {
        fill: #b700ff;
      }

      .cls-48 {
        fill: #ff00ea;
      }

      .cls-49 {
        fill: #02f;
      }

      .cls-50 {
        fill: #ff3044;
      }
    </style>
  </defs>
  <g id="Layer_1-2" data-name="Layer 1">
    <g>
      <g>
        <rect class="cls-2" x="7.73" y="7.73" width="7.73" height="7.73"/>
        <rect class="cls-17" y="15.45" width="13.44" height="7.73"/>
        <rect class="cls-31" y="23.18" width="7.73" height="7.73"/>
        <rect class="cls-5" y="30.9" width="7.73" height="7.73"/>
        <rect class="cls-24" y="38.63" width="7.73" height="7.73"/>
        <rect class="cls-8" y="46.35" width="7.73" height="7.73"/>
        <rect class="cls-32" y="54.08" width="7.73" height="7.73"/>
        <rect class="cls-9" y="61.8" width="7.73" height="7.73"/>
        <rect class="cls-36" y="69.53" width="7.73" height="7.73"/>
        <rect class="cls-26" y="77.25" width="10.99" height="7.73"/>
        <rect class="cls-39" x="7.69" y="84.94" width="7.73" height="7.73"/>
        <rect class="cls-38" x="15.42" y="88.8" width="7.73" height="11.59"/>
        <rect class="cls-14" x="23.14" y="92.67" width="7.73" height="7.73"/>
        <rect class="cls-20" x="30.87" y="92.67" width="7.73" height="7.73"/>
        <rect class="cls-25" x="38.59" y="92.67" width="7.73" height="7.73"/>
        <rect class="cls-12" x="15.45" y="0" width="7.73" height="11.59"/>
        <rect class="cls-46" x="23.18" y="0" width="7.73" height="7.73"/>
        <rect class="cls-10" x="30.9" y="0" width="7.73" height="7.73"/>
        <rect class="cls-27" x="38.63" y="0" width="7.73" height="7.73"/>
        <rect class="cls-13" x="46.33" y="0" width="7.73" height="7.73"/>
        <rect class="cls-6" x="84.94" y="7.73" width="7.73" height="7.73"/>
        <rect class="cls-1" x="85.99" y="15.45" width="14.39" height="7.73"/>
        <rect class="cls-34" x="92.66" y="23.18" width="7.73" height="7.73"/>
        <rect class="cls-29" x="92.66" y="30.9" width="7.73" height="7.73"/>
        <rect class="cls-23" x="92.66" y="38.63" width="7.73" height="7.73"/>
        <rect class="cls-47" x="92.66" y="46.35" width="7.73" height="7.73"/>
        <rect class="cls-21" x="92.66" y="54.08" width="7.73" height="7.73"/>
        <rect class="cls-3" x="92.66" y="61.8" width="7.73" height="7.73"/>
        <rect class="cls-48" x="92.66" y="69.53" width="7.73" height="7.73"/>
        <rect class="cls-30" x="88.83" y="77.25" width="11.55" height="7.73"/>
        <rect class="cls-44" x="84.97" y="84.94" width="7.73" height="7.73"/>
        <rect class="cls-42" x="77.25" y="88.8" width="7.73" height="11.59"/>
        <rect class="cls-40" x="69.51" y="92.67" width="7.73" height="7.73"/>
        <rect class="cls-18" x="61.78" y="92.67" width="7.73" height="7.73"/>
        <rect class="cls-43" x="54.06" y="92.67" width="7.73" height="7.73"/>
        <rect class="cls-35" x="46.32" y="92.67" width="7.73" height="7.73"/>
        <rect class="cls-49" x="77.21" y="0" width="7.73" height="13.1"/>
        <rect class="cls-11" x="69.49" y="0" width="7.73" height="7.73"/>
        <rect class="cls-7" x="61.76" y="0" width="7.73" height="7.73"/>
        <rect class="cls-45" x="54.04" y="0" width="7.73" height="7.73"/>
      </g>
      <polygon class="cls-19" points="96.35 18.12 96.35 82.27 89.25 82.27 89.25 89.4 82.15 89.4 82.15 96.53 18.24 96.53 18.24 89.4 11.14 89.4 11.14 82.27 4.04 82.27 4.04 18.12 11.14 18.12 11.14 10.99 18.24 10.99 18.24 3.86 82.15 3.86 82.15 10.99 89.25 10.99 89.25 18.12 96.35 18.12"/>
      <g>
        <polygon class="cls-37" points="58.09 37.72 58.09 42.99 52.82 42.99 52.82 48.25 47.56 48.25 47.56 42.99 42.3 42.99 42.3 37.72 47.56 37.72 47.56 32.46 52.82 32.46 52.82 37.72 58.09 37.72"/>
        <polygon class="cls-41" points="58.09 27.2 58.09 37.72 52.82 37.72 52.82 32.46 47.56 32.46 47.56 37.72 42.3 37.72 42.3 27.2 58.09 27.2"/>
        <rect class="cls-15" x="37.04" y="27.2" width="5.26" height="10.52"/>
        <rect class="cls-15" x="42.3" y="21.94" width="15.78" height="5.26"/>
        <rect class="cls-15" x="58.09" y="27.2" width="5.26" height="10.52"/>
        <polygon class="cls-33" points="32.35 54.97 36.9 52.33 39.53 56.89 44.09 54.26 46.72 58.82 42.17 61.45 44.8 66 40.24 68.64 37.61 64.08 33.05 66.71 30.42 62.15 34.98 59.52 32.35 54.97"/>
        <polygon class="cls-16" points="23.23 60.23 32.35 54.97 34.98 59.52 30.42 62.15 33.05 66.71 37.61 64.08 40.24 68.64 31.13 73.9 23.23 60.23"/>
        <rect class="cls-4" x="31.74" y="70.91" width="10.52" height="5.26" transform="translate(-31.82 28.35) rotate(-30)"/>
        <rect class="cls-4" x="22.27" y="60.48" width="5.26" height="15.78" transform="translate(-30.85 21.61) rotate(-30)"/>
        <rect class="cls-4" x="21.21" y="52.69" width="10.52" height="5.26" transform="translate(-24.11 20.65) rotate(-30)"/>
        <polygon class="cls-28" points="60.15 68.64 55.59 66 58.22 61.45 53.67 58.82 56.3 54.26 60.85 56.89 63.48 52.33 68.04 54.97 65.41 59.52 69.97 62.15 67.34 66.71 62.78 64.08 60.15 68.64"/>
        <polygon class="cls-22" points="69.26 73.9 60.15 68.64 62.78 64.08 67.34 66.71 69.97 62.15 65.41 59.52 68.04 54.97 77.15 60.23 69.26 73.9"/>
        <rect class="cls-50" x="71.28" y="50.06" width="5.26" height="10.52" transform="translate(-10.95 91.67) rotate(-60)"/>
        <rect class="cls-50" x="67.59" y="65.75" width="15.78" height="5.26" transform="translate(-21.47 99.56) rotate(-60)"/>
        <rect class="cls-50" x="60.76" y="68.28" width="5.26" height="10.52" transform="translate(-32 91.67) rotate(-60)"/>
      </g>
    </g>
  </g>
</svg>