<?xml version="1.0" encoding="UTF-8"?>
<svg id="Layer_2" data-name="Layer 2" xmlns="http://www.w3.org/2000/svg" viewBox="0 0 100 100.39">
  <defs>
    <style>
      .cls-1 {
        fill: #00cf67;
      }

      .cls-2 {
        fill: #00b6ff;
      }

      .cls-3 {
        fill: #183014;
      }

      .cls-4 {
        fill: #7f3bf4;
      }

      .cls-5 {
        fill: #ff5901;
      }

      .cls-6 {
        fill: #ff001c;
      }
    </style>
  </defs>
  <g id="Layer_1-2" data-name="Layer 1">
    <g>
      <polygon class="cls-3" points="100 15.44 100 84.95 92.31 84.95 92.31 92.67 84.62 92.67 84.62 100.39 15.38 100.39 15.38 92.67 7.69 92.67 7.69 84.95 0 84.95 0 15.44 7.69 15.44 7.69 7.72 15.38 7.72 15.38 0 84.62 0 84.62 7.72 92.31 7.72 92.31 15.44 100 15.44"/>
      <g>
        <polygon class="cls-1" points="43.47 60 36.93 60 36.93 63.26 33.67 63.26 33.67 66.53 30.4 66.53 30.4 73.06 33.67 73.06 33.67 76.33 36.93 76.33 36.93 79.6 43.47 79.6 43.47 76.33 46.73 76.33 46.73 73.06 50 73.06 50 66.53 50 60 43.47 60"/>
        <polygon class="cls-4" points="43.47 40.4 36.93 40.4 36.93 43.66 33.67 43.66 33.67 46.93 30.4 46.93 30.4 53.46 33.67 53.46 33.67 56.73 36.93 56.73 36.93 60 43.47 60 50 60 50 53.46 50 46.93 50 40.4 43.47 40.4"/>
        <polygon class="cls-6" points="43.47 20.8 36.93 20.8 36.93 24.06 33.67 24.06 33.67 27.33 30.4 27.33 30.4 33.86 33.67 33.86 33.67 37.13 36.93 37.13 36.93 40.4 43.47 40.4 50 40.4 50 33.86 50 27.33 50 20.8 43.47 20.8"/>
        <polygon class="cls-5" points="66.33 27.33 66.33 24.06 63.07 24.06 63.07 20.8 56.53 20.8 50 20.8 50 27.33 50 33.86 50 40.4 56.53 40.4 63.07 40.4 63.07 37.13 66.33 37.13 66.33 33.86 69.6 33.86 69.6 27.33 66.33 27.33"/>
        <polygon class="cls-2" points="66.33 46.93 66.33 43.66 63.07 43.66 63.07 40.4 56.53 40.4 56.53 43.42 53.27 43.42 53.27 46.69 50 46.69 50 53.22 53.27 53.22 53.27 56.49 56.53 56.49 56.53 60 63.07 60 63.07 56.73 66.33 56.73 66.33 53.46 69.6 53.46 69.6 46.93 66.33 46.93"/>
      </g>
    </g>
  </g>
</svg>