<?xml version="1.0" encoding="UTF-8"?>
<svg id="Layer_2" data-name="Layer 2" xmlns="http://www.w3.org/2000/svg" viewBox="0 0 100 100.39">
  <defs>
    <style>
      .cls-1 {
        fill: #ebebeb;
      }

      .cls-2 {
        fill: #183014;
      }

      .cls-3 {
        fill: #f16529;
      }

      .cls-4 {
        fill: #e44d26;
      }

      .cls-5 {
        fill: #fff;
      }
    </style>
  </defs>
  <g id="Layer_1-2" data-name="Layer 1">
    <g>
      <polygon class="cls-2" points="100 15.44 100 84.95 92.31 84.95 92.31 92.67 84.62 92.67 84.62 100.39 15.38 100.39 15.38 92.67 7.69 92.67 7.69 84.95 0 84.95 0 15.44 7.69 15.44 7.69 7.72 15.38 7.72 15.38 0 84.62 0 84.62 7.72 92.31 7.72 92.31 15.44 100 15.44"/>
      <g>
        <g>
          <polygon class="cls-4" points="27.04 31.33 27.04 47.41 29.33 47.41 29.33 63.49 31.63 63.49 31.63 74.97 36.22 74.97 36.22 77.27 40.82 77.27 40.82 79.57 59.18 79.57 59.18 77.27 63.78 77.27 63.78 74.97 68.37 74.97 68.37 63.49 70.66 63.49 70.66 47.41 72.96 47.41 72.96 31.33 27.04 31.33"/>
          <polygon class="cls-3" points="68.37 33.63 68.37 47.41 66.07 47.41 66.07 61.19 63.78 61.19 63.78 72.68 59.18 72.68 59.18 74.97 50 74.97 50 42.82 50.01 42.82 50.01 38.23 50 38.23 50 33.63 68.37 33.63"/>
          <rect class="cls-5" x="50" y="40.98" width="13.79" height="5.43"/>
          <polygon class="cls-1" points="41.64 46.41 41.64 52.73 50 52.73 50 58.17 36.21 58.17 36.21 40.98 50 40.98 50 46.41 41.64 46.41"/>
          <polygon class="cls-5" points="61.69 52.73 61.69 71.96 50 71.96 50 66.52 56.26 66.52 56.26 58.17 50 58.17 50 52.73 61.69 52.73"/>
          <polygon class="cls-1" points="50 66.52 50 71.96 38.93 71.96 38.93 61.19 44.36 61.19 44.36 66.52 50 66.52"/>
        </g>
        <g>
          <path class="cls-5" d="M38.97,29.67v-4.42h-2.18v4.42h-2.22v-8.84h2.22v3.3h2.18v-3.3h2.22v8.84h-2.22Z"/>
          <path class="cls-5" d="M46.7,21.95v7.72h-2.22v-7.72h-2.21v-1.12h6.64v1.12h-2.21Z"/>
          <path class="cls-5" d="M55.49,29.67v-4.42h-1.08v2.21h-2.22v-2.21h-1.07v4.42h-1.12v-8.84h2.22v2.21h1.09v2.21h1.08v-2.21h1.11v-2.21h2.22v8.84h-2.22Z"/>
          <path class="cls-5" d="M59.91,29.67v-8.84h2.22v7.72h3.3v1.12h-5.53Z"/>
        </g>
      </g>
    </g>
  </g>
</svg>