<?xml version="1.0" encoding="UTF-8"?>
<svg id="Layer_2" data-name="Layer 2" xmlns="http://www.w3.org/2000/svg" viewBox="0 0 100 100.39">
  <defs>
    <style>
      .cls-1 {
        fill: #183014;
      }

      .cls-2 {
        fill: #f02f60;
      }
    </style>
  </defs>
  <g id="Layer_1-2" data-name="Layer 1">
    <g>
      <polygon class="cls-1" points="100 15.44 100 84.95 92.31 84.95 92.31 92.67 84.62 92.67 84.62 100.39 15.38 100.39 15.38 92.67 7.69 92.67 7.69 84.95 0 84.95 0 15.44 7.69 15.44 7.69 7.72 15.38 7.72 15.38 0 84.62 0 84.62 7.72 92.31 7.72 92.31 15.44 100 15.44"/>
      <g>
        <path class="cls-2" d="M26.37,69.15V31.24h9.52v37.91h-9.52Z"/>
        <path class="cls-2" d="M68.93,64.39v4.76h-23.69V31.24h23.69v4.82h4.7v28.34h-4.7ZM64.11,36.11h-9.35v28.22h9.35v-28.22Z"/>
      </g>
    </g>
  </g>
</svg>