<?xml version="1.0" encoding="UTF-8"?>
<svg id="Layer_2" data-name="Layer 2" xmlns="http://www.w3.org/2000/svg" viewBox="0 0 100 100.39">
  <defs>
    <style>
      .cls-1 {
        fill: #ebebeb;
      }

      .cls-2 {
        fill: #fcdc2f;
      }

      .cls-3 {
        fill: #183014;
      }

      .cls-4, .cls-5 {
        fill: #fff;
      }

      .cls-6 {
        fill: #dcc136;
      }

      .cls-5 {
        font-family: LoRes12OT-Bold, 'LoRes 12 OT';
        font-size: 14.26px;
        font-weight: 700;
      }
    </style>
  </defs>
  <g id="Layer_1-2" data-name="Layer 1">
    <g>
      <polygon class="cls-3" points="100 15.44 100 84.95 92.31 84.95 92.31 92.67 84.62 92.67 84.62 100.39 15.38 100.39 15.38 92.67 7.69 92.67 7.69 84.95 0 84.95 0 15.44 7.69 15.44 7.69 7.72 15.38 7.72 15.38 0 84.62 0 84.62 7.72 92.31 7.72 92.31 15.44 100 15.44"/>
      <g>
        <g>
          <polygon class="cls-6" points="27.04 34.05 27.04 50.13 29.33 50.13 29.33 66.21 31.63 66.21 31.63 77.69 36.22 77.69 36.22 79.99 40.82 79.99 40.82 82.28 59.18 82.28 59.18 79.99 63.78 79.99 63.78 77.69 68.37 77.69 68.37 66.21 70.66 66.21 70.66 50.13 72.96 50.13 72.96 34.05 27.04 34.05"/>
          <polygon class="cls-2" points="68.37 36.35 68.37 50.13 66.07 50.13 66.07 63.91 63.78 63.91 63.78 75.4 59.18 75.4 59.18 77.69 50 77.69 50 45.53 50.01 45.53 50.01 40.94 50 40.94 50 36.35 68.37 36.35"/>
          <rect class="cls-4" x="50" y="43.69" width="13.79" height="5.43"/>
          <polygon class="cls-1" points="41.64 49.12 41.64 55.45 50 55.45 50 60.88 36.21 60.88 36.21 43.69 50 43.69 50 49.12 41.64 49.12"/>
          <polygon class="cls-4" points="61.69 55.45 61.69 74.67 50 74.67 50 69.24 56.26 69.24 56.26 60.88 50 60.88 50 55.45 61.69 55.45"/>
          <polygon class="cls-1" points="50 69.24 50 74.67 38.93 74.67 38.93 63.91 44.36 63.91 44.36 69.24 50 69.24"/>
        </g>
        <text class="cls-5" transform="translate(42.28 30.01)"><tspan x="0" y="0">JS</tspan></text>
      </g>
    </g>
  </g>
</svg>