<?xml version="1.0" encoding="UTF-8"?>
<svg id="Layer_2" data-name="Layer 2" xmlns="http://www.w3.org/2000/svg" viewBox="0 0 100 100.39">
  <defs>
    <style>
      .cls-1 {
        fill: #8989ee;
      }

      .cls-2 {
        fill: #183014;
      }
    </style>
  </defs>
  <g id="Layer_1-2" data-name="Layer 1">
    <g>
      <polygon class="cls-2" points="100 15.44 100 84.95 92.31 84.95 92.31 92.67 84.62 92.67 84.62 100.39 15.38 100.39 15.38 92.67 7.69 92.67 7.69 84.95 0 84.95 0 15.44 7.69 15.44 7.69 7.72 15.38 7.72 15.38 0 84.62 0 84.62 7.72 92.31 7.72 92.31 15.44 100 15.44"/>
      <g>
        <path class="cls-1" d="M41.25,50.22v4.43h-13.19v13.19h-8.86v-35.28h22.05v4.48h4.38v13.19h-4.38ZM36.76,37.09h-8.7v13.08h8.7v-13.08Z"/>
        <path class="cls-1" d="M71.94,67.84v-13.19h-8.7v13.19h-8.86v-35.28h22.05v4.48h4.38v13.19h-4.38v4.32h4.38v13.29h-8.86ZM71.94,37.09h-8.7v13.08h8.7v-13.08Z"/>
      </g>
    </g>
  </g>
</svg>