<?xml version="1.0" encoding="UTF-8"?>
<svg id="Layer_2" data-name="Layer 2" xmlns="http://www.w3.org/2000/svg" viewBox="0 0 100 100.39">
  <defs>
    <style>
      .cls-1 {
        fill: #183014;
      }

      .cls-2 {
        fill: #2b94e3;
      }
    </style>
  </defs>
  <g id="Layer_1-2" data-name="Layer 1">
    <g>
      <polygon class="cls-1" points="100 15.44 100 84.95 92.31 84.95 92.31 92.67 84.62 92.67 84.62 100.39 15.38 100.39 15.38 92.67 7.69 92.67 7.69 84.95 0 84.95 0 15.44 7.69 15.44 7.69 7.72 15.38 7.72 15.38 0 84.62 0 84.62 7.72 92.31 7.72 92.31 15.44 100 15.44"/>
      <g>
        <path class="cls-2" d="M38.95,37.09h-8.7v13.08h8.7v-13.08ZM43.43,50.22v4.43h-13.19v13.19h-8.86v-35.28h22.05v4.48h4.38v13.19h-4.38Z"/>
        <polygon class="cls-2" points="74.24 63.41 74.24 67.84 56.57 67.84 56.57 58.93 61.05 58.93 61.05 63.36 69.75 63.36 69.75 54.69 60.94 54.69 60.94 50.28 56.57 50.28 56.57 37.04 60.94 37.04 60.94 32.55 78.61 32.55 78.61 41.52 74.13 41.52 74.13 37.09 65.43 37.09 65.43 45.79 74.24 45.79 74.24 50.22 78.61 50.22 78.61 63.41 74.24 63.41"/>
      </g>
    </g>
  </g>
</svg>