<?xml version="1.0" encoding="UTF-8"?>
<svg id="Layer_2" data-name="Layer 2" xmlns="http://www.w3.org/2000/svg" viewBox="0 0 100 100.39">
  <defs>
    <style>
      .cls-1 {
        fill: #3775aa;
      }

      .cls-2 {
        fill: #ffd546;
      }

      .cls-3 {
        fill: #183014;
      }
    </style>
  </defs>
  <g id="Layer_1-2" data-name="Layer 1">
    <g>
      <polygon class="cls-3" points="100 15.44 100 84.95 92.31 84.95 92.31 92.67 84.62 92.67 84.62 100.39 15.38 100.39 15.38 92.67 7.69 92.67 7.69 84.95 0 84.95 0 15.44 7.69 15.44 7.69 7.72 15.38 7.72 15.38 0 84.62 0 84.62 7.72 92.31 7.72 92.31 15.44 100 15.44"/>
      <g>
        <path class="cls-1" d="M60.41,23.14v-2.31h-23.13v2.31h-2.31v9.25h13.87v2.31h-23.12v4.63h-4.63v18.51h2.31v2.31h2.31v2.31h9.25v-13.88h25.43v-2.31h2.31v-23.13h-2.31ZM44.22,30.08h-4.62v-4.63h4.62v4.63Z"/>
        <path class="cls-2" d="M39.59,77.25v2.31h23.13v-2.31h2.31v-9.25h-13.87v-2.31h23.12v-4.63h4.63v-18.51h-2.31v-2.31h-2.31v-2.31h-9.25v13.88h-25.43v2.31h-2.31v23.13h2.31ZM55.78,70.31h4.62v4.63h-4.62v-4.63Z"/>
      </g>
    </g>
  </g>
</svg>