<?xml version="1.0" encoding="UTF-8"?>
<svg id="Layer_2" data-name="Layer 2" xmlns="http://www.w3.org/2000/svg" viewBox="0 0 100 100.39">
  <defs>
    <style>
      .cls-1 {
        fill: #183014;
      }

      .cls-2 {
        fill: #3cb9e5;
      }

      .cls-3 {
        fill: #0e598c;
      }

      .cls-4 {
        fill: #1196d1;
      }
    </style>
  </defs>
  <g id="Layer_1-2" data-name="Layer 1">
    <g>
      <polygon class="cls-1" points="100 15.44 100 84.95 92.31 84.95 92.31 92.67 84.62 92.67 84.62 100.39 15.38 100.39 15.38 92.67 7.69 92.67 7.69 84.95 0 84.95 0 15.44 7.69 15.44 7.69 7.72 15.38 7.72 15.38 0 84.62 0 84.62 7.72 92.31 7.72 92.31 15.44 100 15.44"/>
      <g>
        <polygon class="cls-4" points="56.44 63.5 56.44 59.07 52.15 59.07 52.15 54.63 47.85 54.63 47.85 50.2 43.56 50.2 43.56 45.76 39.27 45.76 39.27 41.32 34.98 41.32 34.98 36.89 30.69 36.89 30.69 32.45 26.39 32.45 26.39 28.02 22.1 28.02 22.1 32.45 22.1 36.89 22.1 41.32 22.1 45.76 26.39 45.76 26.39 50.2 30.69 50.2 30.69 54.63 34.98 54.63 34.98 59.07 39.27 59.07 39.27 63.5 43.56 63.5 43.56 67.94 47.85 67.94 47.85 72.38 52.15 72.38 52.15 76.81 56.44 76.81 60.73 76.81 60.73 72.38 60.73 67.94 60.73 63.5 56.44 63.5"/>
        <polygon class="cls-3" points="56.44 23.58 52.15 23.58 52.15 28.02 47.85 28.02 47.85 32.45 43.56 32.45 43.56 35.72 39.27 35.72 39.27 40.15 39.27 40.74 34.98 40.74 34.98 45.17 30.69 45.17 30.69 49.61 30.69 50.2 26.39 50.2 26.39 54.63 22.1 54.63 22.1 59.07 22.1 63.5 22.1 67.94 22.1 72.38 26.39 72.38 26.39 67.94 30.69 67.94 30.69 63.5 30.69 62.92 34.98 62.92 34.98 59.07 39.27 59.07 39.27 54.05 39.27 53.46 43.56 53.46 43.56 50.2 47.85 50.2 47.85 45.76 52.15 45.76 52.15 41.32 56.44 41.32 56.44 36.89 60.73 36.89 60.73 32.45 60.73 28.02 60.73 23.58 56.44 23.58"/>
        <polygon class="cls-2" points="73.61 23.58 73.61 19.14 69.31 19.14 65.02 19.14 60.73 19.14 56.44 19.14 56.44 23.58 60.73 23.58 60.73 28.02 60.73 32.45 60.73 36.89 60.73 41.32 60.73 45.76 60.73 50.2 60.73 54.63 60.73 59.07 60.73 63.5 60.73 67.94 60.73 72.38 60.73 76.81 56.44 76.81 56.44 81.25 60.73 81.25 65.02 81.25 69.31 81.25 73.61 81.25 73.61 76.81 77.9 76.81 77.9 72.38 77.9 67.94 77.9 63.5 77.9 59.07 77.9 54.63 77.9 50.2 77.9 45.76 77.9 41.32 77.9 36.89 77.9 32.45 77.9 28.02 77.9 23.58 73.61 23.58"/>
      </g>
    </g>
  </g>
</svg>